{
	"asset":{
		"generator":"Khronos glTF Blender I/O v4.1.63",
		"version":"2.0"
	},
	"extensionsUsed":[
		"KHR_materials_emissive_strength",
		"KHR_materials_specular",
		"KHR_materials_ior"
	],
	"scene":0,
	"scenes":[
		{
			"name":"Scene",
			"nodes":[
				0,
				1
			]
		}
	],
	"nodes":[
		{
			"mesh":0,
			"name":"Cube_low",
			"translation":[
				0,
				2.0980539321899414,
				0
			]
		},
		{
			"mesh":1,
			"name":"Plane",
			"scale":[
				20.259353637695312,
				20.259353637695312,
				20.259353637695312
			],
			"translation":[
				0,
				0.2677123248577118,
				0
			]
		}
	],
	"materials":[
		{
			"doubleSided":true,
			"name":"Metal-Case",
			"normalTexture":{
				"index":0
			},
			"pbrMetallicRoughness":{
				"baseColorTexture":{
					"index":1
				},
				"metallicFactor":0,
				"metallicRoughnessTexture":{
					"index":2
				}
			}
		},
		{
			"doubleSided":true,
			"name":"Metal-Frame",
			"normalTexture":{
				"index":3
			},
			"pbrMetallicRoughness":{
				"baseColorTexture":{
					"index":4
				},
				"metallicFactor":0,
				"metallicRoughnessTexture":{
					"index":5
				}
			}
		},
		{
			"doubleSided":true,
			"emissiveFactor":[
				1,
				1,
				1
			],
			"emissiveTexture":{
				"index":6
			},
			"extensions":{
				"KHR_materials_emissive_strength":{
					"emissiveStrength":2.5
				}
			},
			"name":"Lamp",
			"normalTexture":{
				"index":7
			},
			"pbrMetallicRoughness":{
				"baseColorTexture":{
					"index":8
				},
				"metallicFactor":0,
				"metallicRoughnessTexture":{
					"index":9
				}
			}
		},
		{
			"doubleSided":true,
			"name":"Steel-Ring",
			"normalTexture":{
				"index":10
			},
			"pbrMetallicRoughness":{
				"baseColorTexture":{
					"index":11
				},
				"metallicFactor":0,
				"metallicRoughnessTexture":{
					"index":12
				}
			}
		},
		{
			"doubleSided":true,
			"extensions":{
				"KHR_materials_specular":{
					"specularFactor":0.22047242522239685
				},
				"KHR_materials_ior":{
					"ior":1.4500000476837158
				}
			},
			"name":"Background.001",
			"pbrMetallicRoughness":{
				"baseColorFactor":[
					0.06680530309677124,
					0.06680530309677124,
					0.06680530309677124,
					1
				],
				"metallicFactor":0,
				"roughnessFactor":0.07874014228582382
			}
		}
	],
	"meshes":[
		{
			"name":"Cube.001",
			"primitives":[
				{
					"attributes":{
						"POSITION":0,
						"NORMAL":1,
						"TEXCOORD_0":2
					},
					"indices":3,
					"material":0
				},
				{
					"attributes":{
						"POSITION":4,
						"NORMAL":5,
						"TEXCOORD_0":6
					},
					"indices":7,
					"material":1
				},
				{
					"attributes":{
						"POSITION":8,
						"NORMAL":9,
						"TEXCOORD_0":10
					},
					"indices":11,
					"material":2
				},
				{
					"attributes":{
						"POSITION":12,
						"NORMAL":13,
						"TEXCOORD_0":14
					},
					"indices":15,
					"material":3
				}
			]
		},
		{
			"name":"Plane",
			"primitives":[
				{
					"attributes":{
						"POSITION":16,
						"NORMAL":17,
						"TEXCOORD_0":18
					},
					"indices":19,
					"material":4
				}
			]
		}
	],
	"textures":[
		{
			"sampler":0,
			"source":0
		},
		{
			"sampler":0,
			"source":1
		},
		{
			"sampler":0,
			"source":2
		},
		{
			"sampler":0,
			"source":3
		},
		{
			"sampler":0,
			"source":4
		},
		{
			"sampler":0,
			"source":5
		},
		{
			"sampler":0,
			"source":6
		},
		{
			"sampler":0,
			"source":7
		},
		{
			"sampler":0,
			"source":6
		},
		{
			"sampler":0,
			"source":8
		},
		{
			"sampler":0,
			"source":9
		},
		{
			"sampler":0,
			"source":10
		},
		{
			"sampler":0,
			"source":11
		}
	],
	"images":[
		{
			"mimeType":"image/png",
			"name":"Lantern_lowpoly_Metal-Case_Normal.1001",
			"uri":"textures/Lantern_lowpoly_Metal-Case_Normal_1001.png"
		},
		{
			"mimeType":"image/png",
			"name":"Lantern_lowpoly_Metal-Case_BaseColor.1001",
			"uri":"textures/Lantern_lowpoly_Metal-Case_BaseColor_1001.png"
		},
		{
			"mimeType":"image/png",
			"name":"Lantern_lowpoly_Metal-Case_Roughness.1001",
			"uri":"textures/Lantern_lowpoly_Metal-Case_Roughness_1001.png"
		},
		{
			"mimeType":"image/png",
			"name":"Lantern_lowpoly_Metal-Frame_Normal.1001",
			"uri":"textures/Lantern_lowpoly_Metal-Frame_Normal_1001.png"
		},
		{
			"mimeType":"image/png",
			"name":"Lantern_lowpoly_Metal-Frame_BaseColor.1001",
			"uri":"textures/Lantern_lowpoly_Metal-Frame_BaseColor_1001.png"
		},
		{
			"mimeType":"image/png",
			"name":"Lantern_lowpoly_Metal-Frame_Roughness.1001",
			"uri":"textures/Lantern_lowpoly_Metal-Frame_Roughness_1001.png"
		},
		{
			"mimeType":"image/png",
			"name":"Lantern_lowpoly_Lamp_BaseColor.1001",
			"uri":"textures/Lantern_lowpoly_Lamp_BaseColor_1001.png"
		},
		{
			"mimeType":"image/png",
			"name":"Lantern_lowpoly_Lamp_Normal.1001",
			"uri":"textures/Lantern_lowpoly_Lamp_Normal_1001.png"
		},
		{
			"mimeType":"image/png",
			"name":"Lantern_lowpoly_Lamp_Roughness.1001",
			"uri":"textures/Lantern_lowpoly_Lamp_Roughness_1001.png"
		},
		{
			"mimeType":"image/png",
			"name":"Lantern_lowpoly_Steel-Ring_Normal.1001",
			"uri":"textures/Lantern_lowpoly_Steel-Ring_Normal_1001.png"
		},
		{
			"mimeType":"image/png",
			"name":"Lantern_lowpoly_Steel-Ring_BaseColor.1001",
			"uri":"textures/Lantern_lowpoly_Steel-Ring_BaseColor_1001.png"
		},
		{
			"mimeType":"image/png",
			"name":"Lantern_lowpoly_Steel-Ring_Roughness.1001",
			"uri":"textures/Lantern_lowpoly_Steel-Ring_Roughness_1001.png"
		}
	],
	"accessors":[
		{
			"bufferView":0,
			"componentType":5126,
			"count":110,
			"max":[
				1.7017927169799805,
				2.6452622413635254,
				1.7017927169799805
			],
			"min":[
				-1.7017927169799805,
				-1.8245545625686646,
				-1.7017927169799805
			],
			"type":"VEC3"
		},
		{
			"bufferView":1,
			"componentType":5126,
			"count":110,
			"type":"VEC3"
		},
		{
			"bufferView":2,
			"componentType":5126,
			"count":110,
			"type":"VEC2"
		},
		{
			"bufferView":3,
			"componentType":5123,
			"count":246,
			"type":"SCALAR"
		},
		{
			"bufferView":4,
			"componentType":5126,
			"count":80,
			"max":[
				1.4296276569366455,
				1.4712759256362915,
				1.4296276569366455
			],
			"min":[
				-1.4296276569366455,
				-1.4712759256362915,
				-1.4296276569366455
			],
			"type":"VEC3"
		},
		{
			"bufferView":5,
			"componentType":5126,
			"count":80,
			"type":"VEC3"
		},
		{
			"bufferView":6,
			"componentType":5126,
			"count":80,
			"type":"VEC2"
		},
		{
			"bufferView":7,
			"componentType":5123,
			"count":192,
			"type":"SCALAR"
		},
		{
			"bufferView":8,
			"componentType":5126,
			"count":16,
			"max":[
				1.2239006757736206,
				1.1542693376541138,
				1.2239006757736206
			],
			"min":[
				-1.2239006757736206,
				-1.1086822748184204,
				-1.2239006757736206
			],
			"type":"VEC3"
		},
		{
			"bufferView":9,
			"componentType":5126,
			"count":16,
			"type":"VEC3"
		},
		{
			"bufferView":10,
			"componentType":5126,
			"count":16,
			"type":"VEC2"
		},
		{
			"bufferView":11,
			"componentType":5123,
			"count":24,
			"type":"SCALAR"
		},
		{
			"bufferView":12,
			"componentType":5126,
			"count":188,
			"max":[
				0.305219829082489,
				4.971397876739502,
				0.6672204732894897
			],
			"min":[
				-0.3060382604598999,
				2.6452620029449463,
				-0.6672204732894897
			],
			"type":"VEC3"
		},
		{
			"bufferView":13,
			"componentType":5126,
			"count":188,
			"type":"VEC3"
		},
		{
			"bufferView":14,
			"componentType":5126,
			"count":188,
			"type":"VEC2"
		},
		{
			"bufferView":15,
			"componentType":5123,
			"count":672,
			"type":"SCALAR"
		},
		{
			"bufferView":16,
			"componentType":5126,
			"count":12,
			"max":[
				1,
				0.5956215262413025,
				1
			],
			"min":[
				-1,
				0,
				-1
			],
			"type":"VEC3"
		},
		{
			"bufferView":17,
			"componentType":5126,
			"count":12,
			"type":"VEC3"
		},
		{
			"bufferView":18,
			"componentType":5126,
			"count":12,
			"type":"VEC2"
		},
		{
			"bufferView":19,
			"componentType":5123,
			"count":18,
			"type":"SCALAR"
		}
	],
	"bufferViews":[
		{
			"buffer":0,
			"byteLength":1320,
			"byteOffset":0,
			"target":34962
		},
		{
			"buffer":0,
			"byteLength":1320,
			"byteOffset":1320,
			"target":34962
		},
		{
			"buffer":0,
			"byteLength":880,
			"byteOffset":2640,
			"target":34962
		},
		{
			"buffer":0,
			"byteLength":492,
			"byteOffset":3520,
			"target":34963
		},
		{
			"buffer":0,
			"byteLength":960,
			"byteOffset":4012,
			"target":34962
		},
		{
			"buffer":0,
			"byteLength":960,
			"byteOffset":4972,
			"target":34962
		},
		{
			"buffer":0,
			"byteLength":640,
			"byteOffset":5932,
			"target":34962
		},
		{
			"buffer":0,
			"byteLength":384,
			"byteOffset":6572,
			"target":34963
		},
		{
			"buffer":0,
			"byteLength":192,
			"byteOffset":6956,
			"target":34962
		},
		{
			"buffer":0,
			"byteLength":192,
			"byteOffset":7148,
			"target":34962
		},
		{
			"buffer":0,
			"byteLength":128,
			"byteOffset":7340,
			"target":34962
		},
		{
			"buffer":0,
			"byteLength":48,
			"byteOffset":7468,
			"target":34963
		},
		{
			"buffer":0,
			"byteLength":2256,
			"byteOffset":7516,
			"target":34962
		},
		{
			"buffer":0,
			"byteLength":2256,
			"byteOffset":9772,
			"target":34962
		},
		{
			"buffer":0,
			"byteLength":1504,
			"byteOffset":12028,
			"target":34962
		},
		{
			"buffer":0,
			"byteLength":1344,
			"byteOffset":13532,
			"target":34963
		},
		{
			"buffer":0,
			"byteLength":144,
			"byteOffset":14876,
			"target":34962
		},
		{
			"buffer":0,
			"byteLength":144,
			"byteOffset":15020,
			"target":34962
		},
		{
			"buffer":0,
			"byteLength":96,
			"byteOffset":15164,
			"target":34962
		},
		{
			"buffer":0,
			"byteLength":36,
			"byteOffset":15260,
			"target":34963
		}
	],
	"samplers":[
		{
			"magFilter":9729,
			"minFilter":9987
		}
	],
	"buffers":[
		{
			"byteLength":15296,
			"uri":"Lantern.bin"
		}
	]
}
